<svg version="1.1" id="Layer_1" xmlns="http://www.w3.org/2000/svg" xmlns:xlink="http://www.w3.org/1999/xlink" x="0px" y="0px"
	 width="100%" viewBox="0 0 1080 1080" enable-background="new 0 0 1080 1080" xml:space="preserve">
<path fill="#4CAF50" opacity="1.000000" stroke="none" 
	d="
M1081.000000,188.000000 
	C1081.000000,423.361359 1081.000000,658.722717 1080.666748,894.777466 
	C1079.131836,903.691772 1078.403687,912.014954 1076.655029,920.117920 
	C1058.901001,1002.392090 994.956055,1063.740234 912.078064,1078.178467 
	C905.747009,1079.281372 899.360657,1080.066895 893.000000,1081.000000 
	C657.638611,1081.000000 422.277252,1081.000000 186.229645,1080.662109 
	C171.055573,1077.423218 155.988831,1076.177368 142.176041,1071.346313 
	C65.905922,1044.670776 19.469183,991.552002 3.881135,911.960999 
	C2.779281,906.335083 1.953928,900.654907 1.000002,895.000000 
	C1.000000,658.971985 1.000000,422.943939 1.343443,186.243439 
	C3.843301,165.467545 7.938482,145.801544 15.987125,127.179840 
	C44.489704,61.234928 93.931824,20.480892 164.029449,4.903260 
	C172.236786,3.079362 180.670975,2.276306 189.000000,1.000000 
	C424.028046,1.000000 659.056091,1.000000 894.777344,1.338915 
	C902.879211,2.714276 910.351929,3.419129 917.686584,4.838009 
	C998.473633,20.466192 1061.949097,84.425705 1077.319824,165.612564 
	C1078.726196,173.041016 1079.781616,180.535950 1081.000000,188.000000 
M426.499969,810.921326 
	C464.664978,810.893860 502.830109,810.794861 540.994934,810.864929 
	C565.122192,810.909241 588.915405,808.213074 612.103333,801.600037 
	C675.334229,783.567139 726.259338,747.825623 763.195984,693.361023 
	C808.676331,626.298340 821.901428,552.893616 802.217651,474.207977 
	C776.221375,370.288391 686.954956,288.042267 579.238098,273.576843 
	C534.527771,267.572632 491.111328,272.264313 449.019958,287.796997 
	C391.429382,309.049286 345.460358,345.409973 312.074585,397.079559 
	C285.617584,438.025757 271.313110,482.990692 271.120300,531.851257 
	C270.758667,623.512390 271.004547,715.175964 271.011017,806.838501 
	C271.011108,808.115295 271.183258,809.392090 271.293335,810.922058 
	C322.900909,810.922058 374.200409,810.922058 426.499969,810.921326 
z"/>
<path fill="#FEFFFE" opacity="1.000000" stroke="none" 
	d="
M893.468628,1081.000000 
	C899.360657,1080.066895 905.747009,1079.281372 912.078064,1078.178467 
	C994.956055,1063.740234 1058.901001,1002.392090 1076.655029,920.117920 
	C1078.403687,912.014954 1079.131836,903.691772 1080.666748,895.235413 
	C1081.000000,956.927429 1081.000000,1018.854797 1081.000000,1081.000000 
	C1018.645935,1081.000000 956.291626,1081.000000 893.468628,1081.000000 
z"/>
<path fill="#FEFFFE" opacity="1.000000" stroke="none" 
	d="
M1081.000000,187.531342 
	C1079.781616,180.535950 1078.726196,173.041016 1077.319824,165.612564 
	C1061.949097,84.425705 998.473633,20.466192 917.686584,4.838009 
	C910.351929,3.419129 902.879211,2.714276 895.235291,1.338915 
	C956.927185,1.000000 1018.854431,1.000000 1081.000000,1.000000 
	C1081.000000,63.020725 1081.000000,125.041702 1081.000000,187.531342 
z"/>
<path fill="#FEFFFE" opacity="1.000000" stroke="none" 
	d="
M1.000002,895.468628 
	C1.953928,900.654907 2.779281,906.335083 3.881135,911.960999 
	C19.469183,991.552002 65.905922,1044.670776 142.176041,1071.346313 
	C155.988831,1076.177368 171.055573,1077.423218 185.771698,1080.662109 
	C124.406120,1081.000000 62.812244,1081.000000 1.000000,1081.000000 
	C1.000000,1019.312622 1.000000,957.624939 1.000002,895.468628 
z"/>
<path fill="#FEFFFE" opacity="1.000000" stroke="none" 
	d="
M188.531342,1.000000 
	C180.670975,2.276306 172.236786,3.079362 164.029449,4.903260 
	C93.931824,20.480892 44.489704,61.234928 15.987125,127.179840 
	C7.938482,145.801544 3.843301,165.467545 1.343443,185.785492 
	C1.000000,124.405724 1.000000,62.811443 1.000000,1.000000 
	C63.354061,1.000000 125.708374,1.000000 188.531342,1.000000 
z"/>
<path fill="#FFFFFF" opacity="1.000000" stroke="none" 
	d="
M425.999939,810.921692 
	C374.200409,810.922058 322.900909,810.922058 271.293335,810.922058 
	C271.183258,809.392090 271.011108,808.115295 271.011017,806.838501 
	C271.004547,715.175964 270.758667,623.512390 271.120300,531.851257 
	C271.313110,482.990692 285.617584,438.025757 312.074585,397.079559 
	C345.460358,345.409973 391.429382,309.049286 449.019958,287.796997 
	C491.111328,272.264313 534.527771,267.572632 579.238098,273.576843 
	C686.954956,288.042267 776.221375,370.288391 802.217651,474.207977 
	C821.901428,552.893616 808.676331,626.298340 763.195984,693.361023 
	C726.259338,747.825623 675.334229,783.567139 612.103333,801.600037 
	C588.915405,808.213074 565.122192,810.909241 540.994934,810.864929 
	C502.830109,810.794861 464.664978,810.893860 425.999939,810.921692 
M399.974915,699.445068 
	C422.903900,693.755188 445.851166,688.136963 468.745850,682.312256 
	C473.104370,681.203308 476.875610,681.247192 481.201752,683.053833 
	C519.556152,699.070862 558.404114,699.542236 597.060303,684.680481 
	C663.326721,659.203796 703.258789,591.003906 693.760193,520.661865 
	C680.487488,422.370636 579.421692,361.721252 486.742859,396.431122 
	C400.622711,428.684723 361.786469,528.695129 403.307312,610.992065 
	C404.353455,613.065613 404.584290,616.157532 403.918915,618.394836 
	C396.238892,644.220703 388.309143,669.972168 380.454895,695.746277 
	C379.601257,698.547607 378.805298,701.366516 377.775177,704.885864 
	C385.411377,703.040833 392.301453,701.376038 399.974915,699.445068 
z"/>
<path fill="#4CAF50" opacity="1.000000" stroke="none" 
	d="
M399.583252,699.578125 
	C392.301453,701.376038 385.411377,703.040833 377.775177,704.885864 
	C378.805298,701.366516 379.601257,698.547607 380.454895,695.746277 
	C388.309143,669.972168 396.238892,644.220703 403.918915,618.394836 
	C404.584290,616.157532 404.353455,613.065613 403.307312,610.992065 
	C361.786469,528.695129 400.622711,428.684723 486.742859,396.431122 
	C579.421692,361.721252 680.487488,422.370636 693.760193,520.661865 
	C703.258789,591.003906 663.326721,659.203796 597.060303,684.680481 
	C558.404114,699.542236 519.556152,699.070862 481.201752,683.053833 
	C476.875610,681.247192 473.104370,681.203308 468.745850,682.312256 
	C445.851166,688.136963 422.903900,693.755188 399.583252,699.578125 
z"/>
</svg>